<?xml version="1.0" standalone="no"?>
<svg xmlns="http://www.w3.org/2000/svg" width="48" height="48"><rect width="48" height="48" opacity="0"></rect><g><path d="M39.98 24.19Q38.78 24.19 37.9 25.1Q37.01 26.02 37.01 27.26L37.01 39.98Q37.01 40.13 37.06 40.06Q37.1 39.98 36.96 39.98L32.93 39.98L32.93 32.88Q32.93 30.43 31.73 28.39Q30.53 26.35 28.46 25.15Q26.4 23.95 24 23.95Q21.55 23.95 19.49 25.15Q17.42 26.35 16.22 28.39Q15.02 30.43 15.02 32.88L15.02 39.98L10.94 39.98Q10.75 39.98 10.85 40.03Q10.94 40.08 10.94 39.94L10.94 27.26Q10.94 26.02 10.06 25.1Q9.17 24.19 7.97 24.19Q6.77 24.19 5.88 25.1Q4.99 26.02 4.99 27.26L4.99 39.94Q4.99 41.57 5.81 42.94Q6.62 44.3 7.99 45.12Q9.36 45.94 10.94 45.94L36.96 45.94Q38.54 45.94 39.94 45.12Q41.33 44.3 42.14 42.94Q42.96 41.57 42.96 39.98L42.96 27.26Q42.96 26.02 42.07 25.1Q41.18 24.19 39.98 24.19ZM21.02 32.88Q21.02 31.49 21.82 30.7Q22.61 29.9 24 29.9Q25.39 29.9 26.18 30.7Q26.98 31.49 26.98 32.88L26.98 39.98L21.02 39.98L21.02 32.88ZM46.18 23.9Q46.94 23.04 46.92 21.82Q46.9 20.59 46.03 19.73L29.9 4.46Q28.27 2.88 26.14 2.35Q24 1.82 21.86 2.35Q19.73 2.88 18.1 4.46L2.02 19.68Q1.1 20.54 1.08 21.79Q1.06 23.04 1.92 23.95Q2.74 24.82 4.01 24.84Q5.28 24.86 6.1 24.05L22.22 8.74Q23.09 7.87 24.02 7.87Q24.96 7.87 25.82 8.74L41.95 24Q42.82 24.86 44.04 24.84Q45.26 24.82 46.18 23.9Z" fill="rgba(0,0,0,0.9019607843137255)"></path></g></svg>