<?xml version="1.0" standalone="no"?>
<svg xmlns="http://www.w3.org/2000/svg" width="48" height="48"><rect width="48" height="48" opacity="0"></rect><g mask="url(#hms_mask_0)"><path d="M41.66 27.5Q40.8 26.69 30.67 17.04L27.02 13.63Q25.73 12.43 23.98 12.43Q22.22 12.43 20.93 13.63L6.38 27.5Q5.81 28.08 5.52 28.78Q5.23 29.47 5.23 30.24L5.23 39.98Q5.23 41.52 6.02 42.86Q6.82 44.21 8.16 45Q9.5 45.79 11.04 45.79L37.01 45.79Q38.54 45.79 39.89 45Q41.23 44.21 42 42.86Q42.77 41.52 42.77 39.98L42.77 30.19Q42.77 29.38 42.46 28.68Q42.14 27.98 41.66 27.5Z" fill="rgba(0,0,0,0.9019607843137255)"></path><path d="M1.92 23.95Q2.74 24.82 4.01 24.84Q5.28 24.86 6.1 24.05L22.22 8.74Q23.09 7.87 24.02 7.87Q24.96 7.87 25.82 8.74L41.95 24Q42.82 24.86 44.04 24.84Q45.26 24.82 46.18 23.9Q46.94 23.04 46.92 21.82Q46.9 20.59 46.03 19.73L29.9 4.46Q28.27 2.88 26.14 2.35Q24 1.82 21.86 2.35Q19.73 2.88 18.1 4.46L2.02 19.68Q1.1 20.54 1.08 21.79Q1.06 23.04 1.92 23.95Z" fill="rgba(0,0,0,0.9019607843137255)"></path></g><defs><mask id="hms_mask_0"><rect width="48" height="48" fill="#ffffff"></rect><g><path d="M18.48 40.61L18.48 32.11Q18.48 30 20.09 28.54Q21.7 27.07 24 27.07Q26.3 27.07 27.91 28.54Q29.52 30 29.52 32.11L29.52 40.61Z" fill="#000000"></path></g></mask></defs></svg>