<?xml version="1.0" standalone="no"?>
<svg xmlns="http://www.w3.org/2000/svg" width="48" height="48"><rect width="48" height="48" opacity="0"></rect><g><path d="M15.02 16.8Q13.87 16.8 13.06 15.98Q12.24 15.17 12.24 14.02Q12.24 12.86 13.06 12.05Q13.87 11.23 15.02 11.23L32.93 11.23Q34.08 11.23 34.9 12.05Q35.71 12.86 35.71 14.02Q35.71 15.17 34.9 15.98Q34.08 16.8 32.93 16.8L15.02 16.8ZM15.02 26.83Q13.87 26.83 13.06 26.02Q12.24 25.2 12.24 24.05Q12.24 22.9 13.06 22.08Q13.87 21.26 15.02 21.26L32.93 21.26Q34.08 21.26 34.9 22.08Q35.71 22.9 35.71 24.05Q35.71 25.2 34.9 26.02Q34.08 26.83 32.93 26.83L15.02 26.83ZM15.02 36.82Q13.87 36.82 13.06 36Q12.24 35.18 12.24 34.03Q12.24 32.88 13.06 32.04Q13.87 31.2 15.02 31.2L23.95 31.2Q25.1 31.2 25.92 32.04Q26.74 32.88 26.74 34.03Q26.74 35.18 25.94 36Q25.15 36.82 24 36.82L15.02 36.82ZM12 0.53Q9.98 0.53 8.26 1.54Q6.53 2.54 5.52 4.25Q4.51 5.95 4.51 8.02L4.51 39.98Q4.51 42 5.52 43.73Q6.53 45.46 8.26 46.46Q9.98 47.47 12 47.47L36 47.47Q38.02 47.47 39.74 46.46Q41.47 45.46 42.48 43.73Q43.49 42 43.49 39.98L43.49 8.02Q43.49 5.95 42.48 4.25Q41.47 2.54 39.74 1.54Q38.02 0.53 36 0.53L12 0.53Z" fill="rgba(0,0,0,0.9019607843137255)"></path></g></svg>