<?xml version="1.0" standalone="no"?>
<svg xmlns="http://www.w3.org/2000/svg" width="48" height="48"><rect width="48" height="48" opacity="0"></rect><g><path d="M12 0.53Q9.98 0.53 8.26 1.54Q6.53 2.54 5.52 4.25Q4.51 5.95 4.51 8.02L4.51 39.98Q4.51 42 5.52 43.73Q6.53 45.46 8.26 46.46Q9.98 47.47 12 47.47L36 47.47Q38.02 47.47 39.74 46.46Q41.47 45.46 42.48 43.73Q43.49 42 43.49 39.98L43.49 8.02Q43.49 5.95 42.48 4.25Q41.47 2.54 39.74 1.54Q38.02 0.53 36 0.53L12 0.53ZM37.54 39.98Q37.54 40.8 37.18 41.16Q36.82 41.52 36 41.52L12 41.52Q11.23 41.52 10.87 41.16Q10.51 40.8 10.51 39.98L10.51 8.02Q10.51 7.2 10.87 6.84Q11.23 6.48 12 6.48L36 6.48Q36.82 6.48 37.18 6.84Q37.54 7.2 37.54 8.02L37.54 39.98ZM15.02 11.23Q13.87 11.23 13.06 12.05Q12.24 12.86 12.24 14.02Q12.24 15.17 13.06 15.98Q13.87 16.8 15.02 16.8L32.93 16.8Q34.08 16.8 34.9 15.98Q35.71 15.17 35.71 14.02Q35.71 12.86 34.9 12.05Q34.08 11.23 32.93 11.23L15.02 11.23ZM15.02 21.26Q13.87 21.26 13.06 22.08Q12.24 22.9 12.24 24.05Q12.24 25.2 13.06 26.02Q13.87 26.83 15.02 26.83L32.93 26.83Q34.08 26.83 34.9 26.02Q35.71 25.2 35.71 24.05Q35.71 22.9 34.9 22.08Q34.08 21.26 32.93 21.26L15.02 21.26ZM15.02 31.2Q13.87 31.2 13.06 32.04Q12.24 32.88 12.24 34.03Q12.24 35.18 13.06 36Q13.87 36.82 15.02 36.82L23.95 36.82Q25.1 36.82 25.92 36Q26.74 35.18 26.74 34.03Q26.74 32.88 25.94 32.04Q25.15 31.2 24 31.2L15.02 31.2Z" fill="rgba(0,0,0,0.9019607843137255)"></path></g></svg>