<?xml version="1.0" standalone="no"?>
<svg xmlns="http://www.w3.org/2000/svg" width="48" height="48"><rect width="48" height="48" opacity="0"></rect><g><path d="M19.78 25.97Q22.22 25.97 24.26 24.77Q26.3 23.57 27.5 21.5Q28.7 19.44 28.7 17.04Q28.7 14.59 27.5 12.55Q26.3 10.51 24.26 9.31Q22.22 8.11 19.78 8.11Q17.38 8.11 15.31 9.31Q13.25 10.51 12.02 12.55Q10.8 14.59 10.8 17.04Q10.8 19.44 12.02 21.5Q13.25 23.57 15.31 24.77Q17.38 25.97 19.78 25.97ZM19.78 12.82Q21.02 12.82 21.96 13.34Q22.9 13.87 23.42 14.83Q23.95 15.79 23.95 17.04Q23.95 18.24 23.42 19.2Q22.9 20.16 21.96 20.71Q21.02 21.26 19.78 21.26Q17.95 21.26 16.75 20.06Q15.55 18.86 15.55 17.04Q15.55 15.79 16.1 14.83Q16.66 13.87 17.62 13.34Q18.58 12.82 19.78 12.82ZM22.46 31.3Q24.91 31.3 26.98 32.47Q29.04 33.65 30.24 35.66Q31.44 37.68 31.44 40.18Q31.44 40.42 31.37 40.51Q31.3 40.61 31.01 40.61L8.5 40.61Q8.26 40.61 8.18 40.51Q8.11 40.42 8.11 40.18Q8.11 37.68 9.31 35.66Q10.51 33.65 12.58 32.47Q14.64 31.3 17.14 31.3L22.46 31.3ZM31.01 45.31Q33.12 45.31 34.63 43.82Q36.14 42.34 36.14 40.18Q36.14 36.48 34.3 33.38Q32.45 30.29 29.28 28.46Q26.11 26.64 22.46 26.64L17.14 26.64Q13.44 26.64 10.3 28.46Q7.15 30.29 5.26 33.38Q3.36 36.48 3.36 40.18Q3.36 42.34 4.87 43.82Q6.38 45.31 8.5 45.31L31.01 45.31Z" fill="rgba(0,0,0,0.9019607843137255)"></path><path d="M30.43 20.3Q30.05 21.36 29.52 22.27Q28.99 23.18 27.55 24.96L30.72 24.96Q33.17 24.96 35.57 26.14Q37.97 27.31 39.5 29.35Q41.04 31.39 41.04 33.84Q41.04 34.08 40.97 34.18Q40.9 34.27 40.66 34.27L36.91 34.27Q38.16 36.86 38.3 38.93L40.66 38.93Q42.72 38.93 44.26 37.44Q45.79 35.95 45.79 33.84Q45.79 30.05 43.49 26.9Q41.18 23.76 37.63 21.98Q34.08 20.21 30.43 20.3ZM25.87 7.39Q26.4 6.91 27.22 6.55Q28.03 6.19 28.99 6.19Q30.19 6.19 31.13 6.74Q32.06 7.3 32.62 8.26Q33.17 9.22 33.17 10.42Q33.17 11.81 32.52 12.84Q31.87 13.87 30.86 14.21L30.91 14.5Q31.15 15.94 31.2 16.92Q31.25 17.9 30.96 19.06Q32.69 18.86 34.3 17.69Q35.9 16.51 36.91 14.57Q37.92 12.62 37.92 10.42Q37.92 8.02 36.7 5.98Q35.47 3.94 33.43 2.74Q31.39 1.54 28.99 1.54Q26.35 1.54 24.22 2.81Q22.08 4.08 21.36 5.86Q23.28 5.95 24.72 6.72Q25.3 7.01 25.87 7.39Z" fill="rgba(0,0,0,0.9019607843137255)"></path></g></svg>