<?xml version="1.0" standalone="no"?>
<svg xmlns="http://www.w3.org/2000/svg" width="48" height="48"><rect width="48" height="48" opacity="0"></rect><g><path d="M19.68 8.11Q17.28 8.11 15.24 9.29Q13.2 10.46 12.02 12.48Q10.85 14.5 10.85 16.9Q10.85 19.25 12.02 21.26Q13.2 23.28 15.24 24.48Q17.28 25.68 19.68 25.68Q22.03 25.68 24.05 24.48Q26.06 23.28 27.24 21.26Q28.42 19.25 28.42 16.9Q28.42 14.5 27.24 12.48Q26.06 10.46 24.05 9.29Q22.03 8.11 19.68 8.11ZM18.29 26.88Q14.69 26.88 11.21 28.63Q7.73 30.38 5.52 33.48Q3.31 36.58 3.31 40.37Q3.31 42.43 4.78 43.85Q6.24 45.26 8.26 45.26L31.06 45.26Q33.07 45.26 34.54 43.82Q36 42.38 36 40.37Q36 36.58 33.77 33.48Q31.54 30.38 28.06 28.63Q24.58 26.88 21.02 26.88L18.29 26.88Z" fill="rgba(0,0,0,0.9019607843137255)"></path><path d="M31.06 15.65Q31.06 16.27 30.91 17.33L30.67 18.48Q33.84 18 35.74 15.82Q37.63 13.63 37.63 10.32Q37.63 7.92 36.43 5.9Q35.23 3.89 33.22 2.71Q31.2 1.54 28.85 1.54Q26.45 1.54 24.5 2.69Q22.56 3.84 21.6 6Q24.24 6.1 26.4 7.39Q28.56 8.69 29.81 10.85Q31.06 13.01 31.06 15.65ZM30.34 20.5Q29.62 22.32 28.44 23.64Q27.26 24.96 25.58 25.78Q29.18 26.5 31.97 28.44Q34.75 30.38 36.41 33.14Q38.06 35.9 38.35 38.93L40.75 38.93Q42.77 38.93 44.23 37.46Q45.7 36 45.7 33.94Q45.7 30.14 43.39 27.02Q41.09 23.9 37.51 22.13Q33.94 20.35 30.34 20.5Z" fill="rgba(0,0,0,0.9019607843137255)"></path></g></svg>