<?xml version="1.0" standalone="no"?>
<svg xmlns="http://www.w3.org/2000/svg" width="48" height="48"><rect width="48" height="48" opacity="0"></rect><g><path d="M32.88 16.42Q32.88 14.3 31.37 12.79Q29.86 11.28 27.79 11.28L8.93 11.33Q6.82 11.33 5.35 12.82Q3.89 14.3 3.89 16.42L3.89 43.82Q3.89 45.55 5.06 46.7Q6.24 47.86 7.85 47.93Q9.46 48 10.75 46.8L18.48 39.5Q18.43 39.55 18.43 39.58Q18.43 39.6 18.38 39.7L25.92 46.8Q27.07 48 28.75 47.95Q30.43 47.9 31.66 46.75Q32.88 45.6 32.88 43.87L32.88 16.42Z" fill="rgba(0,0,0,0.9019607843137255)"></path><path d="M35.71 35.38Q37.34 36.91 38.47 37.22Q39.6 37.54 41.04 36.96Q42.05 36.48 42.67 35.64Q43.3 34.8 43.44 33.79Q43.49 33.6 43.49 33.17L43.49 5.71Q43.49 3.6 42.02 2.14Q40.56 0.67 38.4 0.67L19.54 0.67Q17.47 0.67 15.98 2.16Q14.5 3.65 14.5 5.71L14.5 8.74L20.45 8.74L20.45 5.71Q20.45 5.9 20.09 6.26Q19.73 6.62 19.54 6.62L38.45 6.62Q38.26 6.62 37.9 6.26Q37.54 5.9 37.54 5.71L37.54 28.8L35.38 26.78L35.38 35.09Z" fill="rgba(0,0,0,0.9019607843137255)"></path></g></svg>