<?xml version="1.0" standalone="no"?>
<svg xmlns="http://www.w3.org/2000/svg" width="48" height="48"><rect width="48" height="48" opacity="0"></rect><g><path d="M23.71 35.86Q23.86 35.76 24.02 35.76Q24.19 35.76 24.29 35.86L34.08 45.07Q34.99 45.98 36.31 46.22Q37.63 46.46 38.83 45.89Q40.03 45.41 40.75 44.3Q41.47 43.2 41.47 41.9L41.47 7.3Q41.47 4.99 39.82 3.34Q38.16 1.68 35.9 1.68L12.1 1.68Q9.84 1.68 8.18 3.34Q6.53 4.99 6.53 7.3L6.53 41.9Q6.53 43.25 7.25 44.33Q7.97 45.41 9.17 45.89Q10.22 46.42 11.57 46.2Q12.91 45.98 13.87 45.07L23.71 35.86ZM34.7 7.68Q35.04 7.68 35.28 7.92Q35.52 8.16 35.52 8.5L35.66 38.35L28.27 31.49Q26.5 29.76 24.05 29.76Q21.6 29.76 19.78 31.49L12.48 38.4L12.48 8.4Q12.48 8.06 12.67 7.87Q12.86 7.68 13.15 7.68L34.7 7.68Z" fill="rgba(0,0,0,0.9019607843137255)"></path></g></svg>