<?xml version="1.0" standalone="no"?>
<svg xmlns="http://www.w3.org/2000/svg" width="48" height="48"><rect width="48" height="48" opacity="0"></rect><g><path d="M38.02 8.5Q38.78 8.5 39.14 8.86Q39.5 9.22 39.5 9.98L39.5 38.02Q39.5 38.78 39.14 39.14Q38.78 39.5 38.02 39.5L9.98 39.5Q9.22 39.5 8.86 39.14Q8.5 38.78 8.5 38.02L8.5 9.98Q8.5 9.22 8.86 8.86Q9.22 8.5 9.98 8.5L38.02 8.5ZM9.98 2.5Q7.97 2.5 6.24 3.5Q4.51 4.51 3.5 6.24Q2.5 7.97 2.5 9.98L2.5 38.02Q2.5 40.03 3.5 41.76Q4.51 43.49 6.24 44.5Q7.97 45.5 9.98 45.5L38.02 45.5Q40.03 45.5 41.76 44.5Q43.49 43.49 44.5 41.76Q45.5 40.03 45.5 38.02L45.5 9.98Q45.5 7.97 44.5 6.24Q43.49 4.51 41.76 3.5Q40.03 2.5 38.02 2.5L9.98 2.5Z" fill="rgba(0,0,0,0.9019607843137255)"></path><path d="M26.98 21.02L26.98 14.5Q26.98 13.3 26.09 12.41Q25.2 11.52 24 11.52Q22.8 11.52 21.91 12.41Q21.02 13.3 21.02 14.5L21.02 21.02L14.5 21.02Q13.3 21.02 12.41 21.91Q11.52 22.8 11.52 24Q11.52 25.2 12.41 26.09Q13.3 26.98 14.5 26.98L21.02 26.98L21.02 33.5Q21.02 34.7 21.91 35.59Q22.8 36.48 24 36.48Q25.2 36.48 26.09 35.59Q26.98 34.7 26.98 33.5L26.98 26.98L33.5 26.98Q34.7 26.98 35.59 26.09Q36.48 25.2 36.48 24Q36.48 22.8 35.59 21.91Q34.7 21.02 33.5 21.02Z" fill="rgba(0,0,0,0.9019607843137255)"></path></g></svg>